<?xml version="1.0" encoding="UTF-8"?>
<svg width="512" height="512" viewBox="0 0 64 64" fill="none" xmlns="http://www.w3.org/2000/svg" role="img" aria-label="I-Vault logo">
<defs>
<linearGradient id="g1" x1="0" y1="0" x2="1" y2="1">
<stop offset="0%" stop-color="#34D399"/>
<stop offset="100%" stop-color="#059669"/>
</linearGradient>
<linearGradient id="g2" x1="0" y1="0" x2="1" y2="1">
<stop offset="0%" stop-color="#A7F3D0"/>
<stop offset="100%" stop-color="#6EE7B7"/>
</linearGradient>
</defs>
<circle cx="32" cy="32" r="30" fill="url(#g1)"/>
<circle cx="32" cy="32" r="20" fill="#0B1221"/>
<g font-size="4" fill="#6EE7B7" font-family="monospace" text-anchor="middle">
<text x="32" y="13">12</text>
<text x="51" y="21">3</text>
<text x="32" y="55">6</text>
<text x="13" y="21">9</text>
</g>
<g stroke="#6EE7B7" stroke-width="1">
<line x1="50.000" y1="32.000" x2="52.000" y2="32.000"/>
<line x1="47.588" y1="41.000" x2="49.321" y2="42.000"/>
<line x1="41.000" y1="47.588" x2="42.000" y2="49.321"/>
<line x1="32.000" y1="50.000" x2="32.000" y2="52.000"/>
<line x1="23.000" y1="47.588" x2="22.000" y2="49.321"/>
<line x1="16.412" y1="41.000" x2="14.679" y2="42.000"/>
<line x1="14.000" y1="32.000" x2="12.000" y2="32.000"/>
<line x1="16.412" y1="23.000" x2="14.679" y2="22.000"/>
<line x1="23.000" y1="16.412" x2="22.000" y2="14.679"/>
<line x1="32.000" y1="14.000" x2="32.000" y2="12.000"/>
<line x1="41.000" y1="16.412" x2="42.000" y2="14.679"/>
<line x1="47.588" y1="23.000" x2="49.321" y2="22.000"/>
</g>
<g transform="translate(32,32)">
<circle cx="0" cy="0" r="9" fill="url(#g2)"/>
<circle cx="0" cy="0" r="6" fill="#0B1221"/>
<line x1="0" y1="0" x2="0" y2="-8" stroke="#34D399" stroke-width="2" stroke-linecap="round"/>
</g>
<text x="32" y="40" text-anchor="middle" font-family="Inter, Arial, sans-serif" font-weight="900" font-size="22" fill="#34D399">I</text>
</svg>